<svg xmlns="http://www.w3.org/2000/svg" viewBox="0 0 426.82 468.55"><defs><style>.cls-1{fill:#5dccf5;}.cls-2{fill:#fff;stroke:#231f20;}.cls-10,.cls-11,.cls-13,.cls-14,.cls-2,.cls-4,.cls-5,.cls-7,.cls-8{stroke-miterlimit:10;}.cls-10,.cls-2,.cls-7,.cls-8{stroke-width:4px;}.cls-11,.cls-13,.cls-3{fill:#f1c328;}.cls-4,.cls-5{fill:none;}.cls-11,.cls-14,.cls-4,.cls-5{stroke:#898989;}.cls-4{stroke-width:5.62px;}.cls-11,.cls-14,.cls-5{stroke-width:3px;}.cls-6{fill:#898989;}.cls-14,.cls-7{fill:#f28f20;}.cls-7,.cls-8{stroke:#b45927;}.cls-8{fill:#fef59f;}.cls-9{fill:#fac599;}.cls-10{fill:#4d4c61;stroke:#4d4c61;}.cls-12{fill:#231f20;}.cls-13{stroke:#fbb043;stroke-width:5px;}</style></defs><g id="Layer_2" data-name="Layer 2"><rect class="cls-1" width="426.82" height="468.55"/></g><g id="Layer_1" data-name="Layer 1"><path class="cls-2" d="M56.76,134.6" transform="translate(-89.33 -162.27)"/><path class="cls-3" d="M411.45,445.14c19.25,7.38,30.65,16.08,30,24.6a9.19,9.19,0,0,1-.19,1.28l25.09-16.77c-24.65-20.57-79.86-37.78-145-42.88-50.1-3.92-95.52.15-126.35,9.74l2.67,31.5a9.19,9.19,0,0,1-.06-2c.85-10.76,20.75-18.81,50.84-22.49Z" transform="translate(-89.33 -162.27)"/><path class="cls-4" d="M197.67,452.61a9.19,9.19,0,0,1-.06-2c.85-10.76,20.75-18.81,50.84-22.49" transform="translate(-89.33 -162.27)"/><path class="cls-5" d="M195,421.11c30.83-9.59,76.25-13.66,126.35-9.74,65.12,5.1,120.33,22.31,145,42.88" transform="translate(-89.33 -162.27)"/><path class="cls-6" d="M412,443.76c3.29,1.34,6.58,2.66,9.79,4.2a82.21,82.21,0,0,1,9.44,5.13,38.43,38.43,0,0,1,8.49,7.05,10.07,10.07,0,0,1,.89,1.13c.28.4.58.79.84,1.21a15.89,15.89,0,0,1,1.31,2.72,6.91,6.91,0,0,1,.44,1.49,10.3,10.3,0,0,1,.27,1.57l0,1.61c-.08.26.35.58.49.89,0,.08.07.15,0,.22a1.45,1.45,0,0,0-.12.19l-.16.4-5-1.11-.06-.25a.46.46,0,0,0-.08-.13s0-.07.08-.1.71-.24.68-.42c0-.34,0-.68,0-1a6.14,6.14,0,0,0-.12-1,3.15,3.15,0,0,0-.09-.52l-.17-.51a11.1,11.1,0,0,0-.86-2.06c-.19-.34-.42-.66-.63-1a6.5,6.5,0,0,0-.68-1,32.54,32.54,0,0,0-7.4-6.68,80.48,80.48,0,0,0-8.94-5.16q-4.69-2.24-9.58-4.09Z" transform="translate(-89.33 -162.27)"/><path class="cls-7" d="M256.92,507c3.72,15.42,2.75,28.64-2.5,33.26a27.87,27.87,0,0,1-3.52,2.53c-5.74,3.44-11.82,4-14.85,4.27-4.62.39-6.5-.16-9.16,1.49-1.34.83-3.61,2.67-3.2,4.05.84,2.85,11.51,1.67,11.63,3.06,0,.37-.75.51-2.15,1.4a17.42,17.42,0,0,0-5.62,5c-.24.38-2.68,4.31-1.11,6.3,1.23,1.55,4.17,1,4.71.89,1.72-.36,2.73-1.24,4.58-2.77,4.26-3.52,6.4-5.26,7-5,1.51.75-3.36,10.62-.47,12.87,1,.76,2.48.36,3.84,0,3.32-.89,4.5-2.71,8-5.68,4.46-3.77,5.59-3.37,12.22-8.89,1.46-1.22,2.2-1.82,2.45-2.11,3.56-4.12,3.56-10.16,2.91-18.85-.67-9-1.9-17-2.91-23.94" transform="translate(-89.33 -162.27)"/><path class="cls-7" d="M358.46,513.83a71.56,71.56,0,0,0-1.62,12.57c-.34,8.65,1.13,12.2-1.28,17.28a19.5,19.5,0,0,1-6,7.1c-1.46,1.11-3.91,2.7-16.31,6.09-6.8,1.85-10.16,2.49-10.66,4.69a4.25,4.25,0,0,0,1.46,3.66c3,2.82,9.15.68,9.32,1.49,0,.14-.26.4-.91.82-2.4,1.53-3.6,2.29-4.12,2.72s0,.13-2.78,3.44a5.3,5.3,0,0,0-1.43,2.31,3.81,3.81,0,0,0,.36,2.61c1.2,1.9,4.56,1.55,5.42,1.46,2.41-.26,3.44-1.18,6.73-2.91,4.26-2.25,8.61-4.74,9.49-3.77.1.11.17.3-.51,2.87-.79,2.94-1,3.34-1.07,4.48a5.08,5.08,0,0,0,.85,3.41,4.71,4.71,0,0,0,3.2,1.49c4.85.52,8.56-6.67,19.77-16.06a24.74,24.74,0,0,0,2.59-2.22c5.26-5.89,3.84-15.06,3.08-19.92-.69-4.42-1.82-7.48-3.74-12.67a124.38,124.38,0,0,0-6-13.65" transform="translate(-89.33 -162.27)"/><path class="cls-8" d="M272.57,225.64c.05-3.09-7.59-4.08-11.21-12.57-.68-1.6-2-4.82-.44-7.55.88-1.52,2.82-3.19,4.65-2.87,2.14.37,2,3.52,6,9.71,1.45,2.21,1.35,1.64,2.39,3.34s1.95,3.59,3.52,4.08c.08,0,.18.05.23,0,.36-.39-4.48-4.3-7.19-10.08-.5-1.07-2.21-4.71-.59-7.56a4.92,4.92,0,0,1,3.95-2.6,4.61,4.61,0,0,1,3,1.51c5.67,5.43,6.25,20,14,23.83a9.15,9.15,0,0,0,3.36.91c14.9.76,38.64,2,59.6,19.36,30.39,25.22,29.94,80.17,29.75,82.62-.93,12.36-2.33,30.81-16,45.42C354.23,387.43,335.82,391,319.94,394c-9.34,1.79-19,2-38.31,2.29-24.4.43-36.61.64-48.7-1.63-14-2.62-31.54-6.06-46.7-20-5.49-5.05-14.35-13.43-16-26.43-.29-2.24-1.66-12.77,4.36-22.29a32.44,32.44,0,0,1,6.05-6.92c7.63-6.59,15.78-7.62,19-14.25,1.69-3.49.88-4.77,2.24-12.24a107.79,107.79,0,0,1,6.27-20.24c4.36-10.4,10-20.44,19.35-28.27C246.42,228.12,272.47,231.3,272.57,225.64Z" transform="translate(-89.33 -162.27)"/><path class="cls-8" d="M346.27,377.84a92.18,92.18,0,0,1,25.46,13.92c11.58,9,12.71,14.71,23.49,20.18,3.56,1.81,14.72,7.29,28.48,5.06,12.47-2,21.25-9.45,23.68-11.6,5.52-4.9,6.84-8.47,8.25-8,3.33,1,.54,22.21-5.39,41.13-2.17,6.9-13.32,42.64-40.45,66.16-46.2,40.05-139.24,45.13-182.4-.15-18.75-19.67-34.83-58.94-21.16-91.65a67.23,67.23,0,0,1,16.21-23" transform="translate(-89.33 -162.27)"/><path class="cls-8" d="M300.27,425.47c-7.94,4-13,11.41-12.76,19.21.25,9.63,8.33,15.47,9.77,16.5,3.92,2.81,7.65,3.71,12.44,4.82,3.35.77,10.15,2.08,22.86,1.58,0,0,28.33-.95,37.65-10.24.18-.18.36-.38.38-.39h0c.07-.07,3-3.64,2.72-6.84-.4-4.22-6.41-7.06-10.15-7.66-1.68-.26-4.52-.34-4.73-.35-2,0-2.37.07-4.82.06a54.25,54.25,0,0,1-5.83-.28s.67,0,2.18,0c1.09,0,1.56,0,2.4-.05,1.84,0,3.15,0,3.56,0a25.81,25.81,0,0,0,13.18-3.39c2-1.29,4.43-2.86,4.17-4.47-.47-3-9.66-4-13.89-4.21a42.61,42.61,0,0,0-12.51,1.31" transform="translate(-89.33 -162.27)"/><path class="cls-9" d="M198.39,335.1c-2.08,7.23-10.2,11.91-16.81,10.61-3.43-.68-8-3.51-8.59-6.91a13,13,0,0,1-.15-2,15.51,15.51,0,0,1,1.23-5.62,24.89,24.89,0,0,1,2.69-4.73c2-2.93,3.84-5.58,7.15-7.69,2.16-1.38,3.33-2.12,4.8-2.1C193.87,316.72,200.92,326.38,198.39,335.1Z" transform="translate(-89.33 -162.27)"/><path class="cls-7" d="M219.9,320.4c4.39-9.53,28-8.89,37.94-8.62,9.57.26,34.91,1,39.16,11.43a7.57,7.57,0,0,1,.18,5.59c-3.92,10.06-31.63,9.36-38.75,9.18-8.44-.22-34.68-.89-38.71-11.43A8.17,8.17,0,0,1,219.9,320.4Z" transform="translate(-89.33 -162.27)"/><circle class="cls-9" cx="244.69" cy="171.84" r="15.03"/><rect class="cls-10" x="135.88" y="113.32" width="7.28" height="21.47" rx="2.77"/><rect class="cls-10" x="196.97" y="113.32" width="7.28" height="21.47" rx="2.77"/><path class="cls-9" d="M163.52,326.63" transform="translate(-89.33 -162.27)"/><path class="cls-3" d="M197.7,453.18c2.35,17.87,54.32,35.95,119.23,41,65.74,5.14,120.44-5,124.34-22.64a.44.44,0,0,0,.37,0c.12-.07.15-.19.23-.41s.13-.26.25-.59a5.73,5.73,0,0,0,.3-1.15c.28-1.52.42-1.48.46-2.17.09-1.34-.41-2.15-.22-2.25s.67.92,1.23,1.29c3.23,2.19,19.14-11.36,19.55-11l.53.43c0,.08-.06.17,0,.19s.43-.6.88-.62.63.59.95.55.42-.29.62-1.35c7.6,6.79,14.42,15.64,13.69,25-2.41,30.76-77.33,50-167.35,42.93s-161-37.7-158.63-68.45c1.07-13.64,16.39-25,41-32.83,3.44,14.74,3.74,20.27,2.92,21.85v0c-.31.61-.55,1.12-.61,1.26a8.15,8.15,0,0,0-.48,1.75,13.94,13.94,0,0,0-.06,2.45,28.83,28.83,0,0,0,.4,3.81c.08.4.21,1,.36,1S197.68,453.23,197.7,453.18Z" transform="translate(-89.33 -162.27)"/><path class="cls-5" d="M466.3,454.67c9.4,8.11,14.34,16.74,13.66,25.39-2.45,31.27-77.41,50.9-167.42,43.86s-161-38.11-158.56-69.38c1.08-13.87,16.43-25.45,41-33.43" transform="translate(-89.33 -162.27)"/><path class="cls-6" d="M441.62,471.07a12.41,12.41,0,0,1-1.83,4.19,13.05,13.05,0,0,1-1.37,1.75,15,15,0,0,1-1.55,1.54,32.59,32.59,0,0,1-7,4.69,80.69,80.69,0,0,1-15.48,5.69,195.88,195.88,0,0,1-32.17,5.37,390.68,390.68,0,0,1-65,0A392.71,392.71,0,0,1,253,484.22,200,200,0,0,1,222.06,474a82.41,82.41,0,0,1-14.43-7.91,33.72,33.72,0,0,1-6.29-5.56,15.64,15.64,0,0,1-3.92-7.82l2.64-.36a13.14,13.14,0,0,0,3.31,6.43,31.46,31.46,0,0,0,5.82,5.12,80.47,80.47,0,0,0,14,7.62,197.27,197.27,0,0,0,30.53,10.05,390.34,390.34,0,0,0,63.73,9.95,387,387,0,0,0,64.5-.11,192.69,192.69,0,0,0,31.67-5.32,77.66,77.66,0,0,0,14.88-5.48,29.92,29.92,0,0,0,6.41-4.26,12.62,12.62,0,0,0,3.93-5.89Z" transform="translate(-89.33 -162.27)"/><circle class="cls-11" cx="81.86" cy="254.48" r="24.54"/><circle class="cls-12" cx="75.15" cy="248.92" r="4.92"/><path class="cls-13" d="M163.89,427.71" transform="translate(-89.33 -162.27)"/><path class="cls-14" d="M149.44,418c5.81.5,12,9.09,11.05,14.16-1.83,9.5-30.13,12.46-35.68-.25-.17-.38-1.79-4.2-.72-6.46,1.44-3,6,.49,12.67-1C143.79,422.87,144.69,417.57,149.44,418Z" transform="translate(-89.33 -162.27)"/></g></svg>